# xmcd
# 
# Track frame offsets:
#   150
#   13935
#   24505
#   35092
#   48017
#   59912
#   75307
#   85485
#   96225
#   110467
#   122950
#   133612
#   145272
#   157257
#   170505
# 
# Disc length: 2434 seconds
# 
# Revision: 3
# Processed by: cddbd v1.5.2PL0 Copyright (c) Steve Scherf et al.
# Submitted via: Synapstar 1.0 
# 
DISCID=d309800f
DTITLE=Various Artist - SC8158
DYEAR=1900
DGENRE=Country
TTITLE0=Johnny Cash - Guess Things Happen That Way
TTITLE1=Patsy Cline - Blue Moon Of Kentucky
TTITLE2=Don Gibson - Sea Of Heartbreak
TTITLE3=Don Gibson - Abilene
TTITLE4=Marty Robbins - Don't Worry
TTITLE5=Conway Twitty - Desperado Love
TTITLE6=Gene Watson - Fourteen Carat Mind
TTITLE7=Hank Locklin - Plese Help Me Im Falling
TTITLE8=John Anderson - Straight Tequila Night
TTITLE9=Patsy Cline - Faded Love
TTITLE10=Lee Greenwood - I O U
TTITLE11=Anne Murray - Love Song
TTITLE12=Willie Nelson - Whiskey River
TTITLE13=Conway Twitty - Tight Fittin' Jeans
TTITLE14=George Jones - I Don't Need Your Rockin' Chair
EXTD=MediaType: Karaoke CD+G Producer: Sound Choice
EXTT0=
EXTT1=
EXTT2=
EXTT3=
EXTT4=
EXTT5=
EXTT6=
EXTT7=
EXTT8=
EXTT9=
EXTT10=
EXTT11=
EXTT12=
EXTT13=
EXTT14=
PLAYORDER=
